- 
http://www.Speed.Cd 
       
http://www.Speed.Cd       the fast  and The Hottest Private Tracker on the net

Please Seed back to make the speed Faster!!!

and don't forget to visit      ...... http://www.Speed.Cd..........
-[img]http://img847.imageshack.us/img847/3905/clinic.jpg[/img]

[color=blue][size=5][b]The.Clinic.2010.BDRIP.XVID.AC3.HQ.Hive-CM8[/b][/size][/color]


[b]Thx Hive

CM8 Doing It Right The First Time :D


Source Bluray

Enjoy a brandnew horror movie, looks very good.
Based on a true event!

Video: 720x304 @bitrate 1650 2pass
Audio: DTS to AC3 5.1 @448
Sample: yes included[/b]


[url]http://www.imdb.com/title/tt1345772/[/url]


General
Complete name                    : The.Clinic.2010.BDRIP.XVID.AC3.HQ.Hive-CM8.avi
Format                           : AVI
Format/Info                      : Audio Video Interleave
File size                        : 1.37 GiB
Duration                         : 1h 33mn
Overall bit rate                 : 2 105 Kbps
Writing application              : Nandub v1.0rc2
Writing library                  : Nandub build 1853/release

Video
ID                               : 0
Format                           : MPEG-4 Visual
Format profile                   : Advanced Simple@L5
Format settings, BVOP            : Yes
Format settings, QPel            : Yes
Format settings, GMC             : No warppoints
Format settings, Matrix          : Default (H.263)
Muxing mode                      : Packed bitstream
Codec ID                         : XVID
Codec ID/Hint                    : XviD
Duration                         : 1h 33mn
Bit rate                         : 1 648 Kbps
Width                            : 720 pixels
Height                           : 304 pixels
Display aspect ratio             : 2.35:1
Frame rate                       : 23.976 fps
Color space                      : YUV
Chroma subsampling               : 4:2:0
Bit depth                        : 8 bits
Scan type                        : Progressive
Bits/(Pixel*Frame)               : 0.314
Stream size                      : 1.07 GiB (78%)
Writing library                  : XviD 1.2.1 (UTC 2008-12-04)

Audio
ID                               : 1
Format                           : AC-3
Format/Info                      : Audio Coding 3
Mode extension                   : CM (complete main)
Codec ID                         : 2000
Duration                         : 1h 33mn
Bit rate mode                    : Constant
Bit rate                         : 448 Kbps
Channel(s)                       : 6 channels
Channel positions                : Front: L C R, Side: L R, LFE
Sampling rate                    : 48.0 KHz
Bit depth                        : 16 bits
Stream size                      : 299 MiB (21%)
Alignment                        : Split accross interleaves
Interleave, duration             : 42 ms (1.00 video frame)
Interleave, preload duration     : 500 ms



Tabrett Bethell	 ... 	Beth
Freya Stafford	... 	Veronica
Andy Whitfield	... 	Cameron
Clare Bowen	... 	Ivy
Sophie Lowe	... 	Allison
Boris Brkic	... 	Hank
Marshall Napier	... 	Officer Underwood


While traveling across country with her fianc, Beth wakes alone in an isolated clinic 
to a mother's worst nightmare. Just how far will she go to save her child? 

[img]http://img855.imageshack.us/img855/8264/clclclcl.png[/img]
[img]http://img5.imageshack.us/img5/9719/58440835.png[/img]
[img]http://img148.imageshack.us/img148/3821/clccllclcl.png[/img]
[img]http://img821.imageshack.us/img821/7453/clcclcllclcl.png[/img]
[img]http://img843.imageshack.us/img843/6199/clcl.png[/img]
[img]http://img854.imageshack.us/img854/7167/clclcclclcllclcl.png[/img]
[img]http://img861.imageshack.us/img861/4928/clclcl.png[/img]





Greetz

ViSiON,LUSi,SANTi,MAGNET,THC,T0XiCiNK,LKRG,IMAGiNE,WBZ,FLAWL3SS,NOVA
Vik,OneTwo,Rapeseed,D2U,SAFC,goldadvance,MEMORY100,KaN1vE,Unevano,Pinnz,Wayne,Mr Hive
and all P2P groups 
Great Work Guys :D

CM8@hushmail.com